<svg width="27" height="27" viewBox="0 0 27 27" fill="none" xmlns="http://www.w3.org/2000/svg">
<path d="M19.9122 2.04449C20.2434 1.71335 20.6365 1.45067 21.0692 1.27146C21.5018 1.09224 21.9656 1 22.4339 1C22.9022 1 23.3659 1.09224 23.7986 1.27146C24.2312 1.45067 24.6244 1.71335 24.9555 2.04449C25.2867 2.37564 25.5493 2.76877 25.7285 3.20143C25.9078 3.63409 26 4.09782 26 4.56613C26 5.03444 25.9078 5.49816 25.7285 5.93082C25.5493 6.36349 25.2867 6.75661 24.9555 7.08776L7.93449 24.1088L1 26L2.89122 19.0655L19.9122 2.04449Z" stroke="black" stroke-linecap="round" stroke-linejoin="round"/>
</svg>
