<svg width="101" height="101" viewBox="0 0 101 101" fill="none" xmlns="http://www.w3.org/2000/svg">
<path fill-rule="evenodd" clip-rule="evenodd" d="M54.2876 6.31246C64.3876 6.94371 73.8563 11.9937 80.8001 18.9375C89.0063 27.775 93.4251 38.5062 93.4251 51.1312C93.4251 61.2312 89.6376 70.7 83.3251 78.9062C77.0126 86.4812 68.1751 92.1625 58.0751 94.0562C47.9751 95.95 37.8751 94.6875 29.0376 89.6375C20.2001 84.5875 13.2563 77.0125 9.4688 67.5437C5.6813 58.075 5.05005 47.3437 8.2063 37.875C11.3626 27.775 17.0438 19.5687 25.8813 13.8875C34.0876 8.20621 44.1876 5.68121 54.2876 6.31246ZM57.4438 87.7437C65.6501 85.85 73.2251 81.4312 78.9063 74.4875C83.9563 67.5437 87.1126 59.3375 86.4813 50.5C86.4813 40.4 82.6938 30.3 75.7501 23.3562C69.4376 17.0437 61.8626 13.2562 53.0251 12.625C44.8188 11.9937 35.9813 13.8875 29.0376 18.9375C22.0938 23.9875 17.0438 30.9312 14.5188 39.7687C11.9938 47.975 11.9938 56.8125 15.7813 65.0187C19.5688 73.225 25.2501 79.5375 32.8251 83.9562C40.4001 88.375 49.2376 89.6375 57.4438 87.7437Z" fill="#FDFDFD"/>
<path fill-rule="evenodd" clip-rule="evenodd" d="M37.875 31.5625L42.7798 28.9365L71.1861 47.874V53.126L42.7798 72.0635L37.875 69.4375V31.5625ZM44.1875 37.4584V63.5416L63.7499 50.5L44.1875 37.4584Z" fill="#FDFDFD"/>
</svg>
